<svg xmlns="http://www.w3.org/2000/svg" viewBox="0 0 512 512" width="512" height="512">
  <rect width="512" height="512" rx="112" fill="#1A1A2E"/>

  <rect x="32" y="28" width="32" height="22" rx="5" fill="#2A2A45"/>
  <rect x="80" y="28" width="32" height="22" rx="5" fill="#2A2A45"/>
  <rect x="128" y="28" width="32" height="22" rx="5" fill="#2A2A45"/>
  <rect x="176" y="28" width="32" height="22" rx="5" fill="#2A2A45"/>
  <rect x="224" y="28" width="32" height="22" rx="5" fill="#2A2A45"/>
  <rect x="272" y="28" width="32" height="22" rx="5" fill="#2A2A45"/>
  <rect x="320" y="28" width="32" height="22" rx="5" fill="#2A2A45"/>
  <rect x="368" y="28" width="32" height="22" rx="5" fill="#2A2A45"/>
  <rect x="416" y="28" width="32" height="22" rx="5" fill="#2A2A45"/>
  <rect x="448" y="28" width="32" height="22" rx="5" fill="#2A2A45"/>

  <rect x="32" y="462" width="32" height="22" rx="5" fill="#2A2A45"/>
  <rect x="80" y="462" width="32" height="22" rx="5" fill="#2A2A45"/>
  <rect x="128" y="462" width="32" height="22" rx="5" fill="#2A2A45"/>
  <rect x="176" y="462" width="32" height="22" rx="5" fill="#2A2A45"/>
  <rect x="224" y="462" width="32" height="22" rx="5" fill="#2A2A45"/>
  <rect x="272" y="462" width="32" height="22" rx="5" fill="#2A2A45"/>
  <rect x="320" y="462" width="32" height="22" rx="5" fill="#2A2A45"/>
  <rect x="368" y="462" width="32" height="22" rx="5" fill="#2A2A45"/>
  <rect x="416" y="462" width="32" height="22" rx="5" fill="#2A2A45"/>
  <rect x="448" y="462" width="32" height="22" rx="5" fill="#2A2A45"/>

  <circle cx="256" cy="230" r="168" fill="#F5A623"/>
  <circle cx="256" cy="230" r="138" fill="#1A1A2E"/>

  <polygon points="210,155 210,307 350,231" fill="#F5A623" opacity="0.35"/>

  <rect x="240" y="175" width="32" height="50" rx="16" fill="#F5A623"/>
  <rect x="248" y="183" width="16" height="34" rx="8" fill="#1A1A2E"/>

  <path d="M228,211 Q228,245 256,245 Q284,245 284,211" fill="none" stroke="#F5A623" stroke-width="8" stroke-linecap="round"/>
  <line x1="256" y1="245" x2="256" y2="267" stroke="#F5A623" stroke-width="8" stroke-linecap="round"/>
  <line x1="236" y1="267" x2="276" y2="267" stroke="#F5A623" stroke-width="8" stroke-linecap="round"/>

  <text x="28" y="450" font-family="Georgia, 'Times New Roman', serif" font-size="46" font-weight="700" fill="#F5A623" textLength="456" lengthAdjust="spacing" opacity="0.9">XPRESSREEL</text>
</svg>
